<svg xmlns="http://www.w3.org/2000/svg" width="64" height="64" viewBox="0 0 16.933 16.933"><g transform="translate(0 -280.067)"><rect width="16.933" height="16.933" y="280.067" ry="1.252" fill="#ed6e12"/><g aria-label="J2" style="line-height:1.25" font-weight="400" font-size="13.115" font-family="Crete Round" letter-spacing="0" word-spacing="0" fill="#fff" stroke-width=".328"><path d="M5.115 291.91v-8.34H4.42q-.197 0-.197-.197v-.67q0-.196.197-.196h2.859q.197 0 .197.197v.669q0 .196-.197.196h-.695v8.394q0 2.597-2.4 2.597-.905 0-1.482-.276-.092-.039-.092-.118 0-.065.026-.13l.236-.683q.066-.197.236-.131.446.17.958.17.524 0 .787-.34.262-.341.262-1.142zM11.018 285.55q-1.154 0-1.311 1.128-.026.144-.079.196-.052.053-.197.053H8.75q-.236 0-.236-.197 0-1.075.748-1.679.748-.603 1.941-.603t1.862.564q.682.55.682 1.666 0 1.783-2.295 3.16-.367.223-.879.499h2.702l-.052-.656q-.013-.144.04-.197.052-.052.196-.052h.616q.144 0 .197.052.052.053.052.197v2.177q0 .144-.052.197-.053.052-.197.052h-.616q-.144 0-.197-.052-.052-.053-.04-.197l.04-.446h-4.46q-.143 0-.196-.052-.052-.053-.052-.197v-.538q0-.236.223-.34 1.364-.709 2.295-1.443 1.167-.905 1.167-2.06 0-.577-.262-.904-.263-.328-.958-.328z"/></g></g></svg>